# AST/ASF file generated using VICON BodyLanguage
# -----------------------------------------------
:version 1.10
:name VICON
:units
  mass 1.0
  length 0.45
  angle deg
:documentation
   .ast/.asf automatically generated from VICON data using
   VICON BodyBuilder and BodyLanguage model FoxedUp or BRILLIANT.MOD
:root
   order TX TY TZ RX RY RZ
   axis XYZ
   position 0 0 0  
   orientation 0 0 0 
:bonedata
  begin
     id 1 
     name lhipjoint
     direction 0.610259 -0.730986 0.305356 
     length 2.50941 
     axis 0 0 0  XYZ
  end
  begin
     id 2 
     name lfemur
     direction 0.34202 -0.939693 0  
     length 7.48822  
     axis 0 0 20  XYZ
    dof rx ry rz
    limits (-160.0 20.0)
           (-70.0 70.0)
           (-60.0 70.0)
  end
  begin
     id 3 
     name ltibia
     direction 0.34202 -0.939693 0   
     length 7.60141   
     axis 0 0 20   XYZ
    dof rx
    limits (-10.0 170.0)
  end
  begin
     id 4 
     name lfoot
     direction 0.0673488 -0.185039 0.980421   
     length 2.04049   
     axis -90 7.62852e-016 20   XYZ
    dof rx rz
    limits (-45.0 90.0)
           (-70.0 20.0)
  end
  begin
     id 5 
     name ltoes
     direction 1.5356e-011 -4.21729e-011 1   
     length 1.02897   
     axis -90 7.62852e-016 20   XYZ
    dof rx
    limits (-90.0 20.0)
  end
  begin
     id 6 
     name rhipjoint
     direction -0.57612 -0.754205 0.315056   
     length 2.43216  
     axis 0 0 0  XYZ 
  end
  begin
     id 7 
     name rfemur
     direction -0.34202 -0.939693 0   
     length 7.42799   
     axis 0 0 -20   XYZ
    dof rx ry rz
    limits (-160.0 20.0)
           (-70.0 70.0)
           (-70.0 60.0)
  end
  begin
     id 8 
     name rtibia
     direction -0.34202 -0.939693 0   
     length 7.69484   
     axis 0 0 -20   XYZ
    dof rx
    limits (-10.0 170.0)
 end
 begin
     id 9 
     name rfoot
     direction -0.111837 -0.30727 0.945028   
     length 2.15769  
     axis -90 -7.62852e-016 -20   XYZ
    dof rx rz
    limits (-45.0 90.0)
           (-20.0 70.0)
  end
  begin
     id 10 
     name rtoes
     direction -1.53539e-011 -4.21878e-011 1   
     length 1.07391   
     axis -90 -7.62852e-016 -20   XYZ
    dof rx
    limits (-90.0 20.0)
  end
  begin
     id 11 
     name lowerback
     direction 0.00552624 0.990109 -0.140195   
     length 2.12403   
     axis 0 0 0   XYZ
    dof rx ry rz
    limits (-20.0 45.0)
           (-30.0 30.0)
           (-30.0 30.0)
  end
  begin
     id 12 
     name upperback
     direction 0.00361898 0.999976 -0.00584723   
     length 2.13232   
     axis 0 0 0   XYZ
    dof rx ry rz
    limits (-20.0 45.0)
           (-30.0 30.0)
           (-30.0 30.0)
  end
  begin
     id 13 
     name thorax
     direction -0.000331275 0.998253 0.0590847   
     length 2.17688   
     axis 0 0 0   XYZ
    dof rx ry rz
    limits (-20.0 45.0)
           (-30.0 30.0)
           (-30.0 30.0)
  end
  begin
     id 14 
     name lowerneck
     direction -0.0561561 0.979832 0.19177   
     length 1.64159   
     axis 0 0 0   XYZ
    dof rx ry rz
    limits (-20.0 45.0)
           (-30.0 30.0)
           (-30.0 30.0)
  end
  begin
     id 15 
     name upperneck
     direction 0.0827153 0.979385 -0.184293   
     length 1.68939   
     axis 0 0 0   XYZ
    dof rx ry rz
    limits (-20.0 45.0)
           (-30.0 30.0)
           (-30.0 30.0)
  end
  begin
     id 16
     name head
     direction 0.0278583 0.995936 -0.0856488  
     length 1.70207  
     axis 0 0 0   XYZ
    dof rx ry rz
    limits (-20.0 45.0)
           (-30.0 30.0)
           (-30.0 30.0)
  end
  begin
     id 17 
     name lclavicle
     direction 0.950993 0.301131 -0.0702275  
     length 3.41652  
     axis 0 0 0   XYZ
    dof ry rz
    limits (-20.0 10.0)
           (0.0 20.0)
  end
  begin
     id 18 
     name lhumerus
     direction 1 -4.48981e-011 -3.9662e-029   
     length 5.32955   
     axis 180 -30 -90   XYZ
    dof rx ry rz
    limits (-60.0 90.0)
           (-90.0 90.0)
           (-90.0 90.0)
  end
  begin
     id 19
     name lradius
     direction 1 -4.48925e-011 -9.0549e-027   
     length 3.69232   
     axis 180 -30 -90   XYZ
    dof rx
    limits (-10.0 170.0)
  end
  begin
     id 20
     name lwrist
     direction 1 -4.49007e-011 -1.49005e-026   
     length 1.84616   
     axis 9.0955e-015 90 90   XYZ
    dof ry
    limits (-180.0 0.0)
 end
  begin
     id 21 
     name lhand
     direction 1 -4.49016e-011 -2.98023e-026   
     length 0.536598   
     axis 1.90115e-014 90 90   XYZ
    dof rx rz
    limits (-90.0 90.0)
           (-45.0 45.0)
  end
  begin
     id 22 
     name lfingers
     direction 1 -4.48924e-011 -5.9578e-026   
     length 0.432619   
     axis 3.80223e-014 90 90   XYZ
    dof rx
    limits (0.0 90.0)
  end
  begin
     id 23
     name lthumb
     direction 0.707107 -6.34947e-011 0.707107   
     length 0.621157   
     axis -90 45 -3.84942e-014   XYZ
    dof rx rz
    limits (-45.0 45.0)
           (-45.0 45.0)
  end
  begin
     id 24 
     name rclavicle
     direction -0.955495 0.276497 -0.102848   
     length 3.36357  
     axis 0 0 0   XYZ 
    dof ry rz
    limits (-10.0 20.0)
           (-20.0 0.0)
  end
  begin
     id 25 
     name rhumerus
     direction -1 -4.48961e-011 3.30983e-027  
     length 5.23431   
     axis 180 30 90   XYZ
    dof rx ry rz
    limits (-90.0 60.0)
           (-90.0 90.0)
           (-90.0 90.0)
  end
  begin
     id 26 
     name rradius
     direction -1 -4.48965e-011 -6.63263e-027   
     length 3.55301   
     axis 180 30 90   XYZ
    dof rx
    limits (-10.0 170.0)
  end
  begin
     id 27 
     name rwrist
     direction -1 -4.48942e-011 -1.48958e-026   
     length 1.77651   
     axis 9.0955e-015 -90 -90   XYZ
    dof ry
    limits (-180.0 0.0)
  end
  begin
     id 28
     name rhand
     direction -1 -4.48977e-011 -2.97966e-026   
     length 0.772522   
     axis 1.90115e-014 -90 -90   XYZ
    dof rx rz
    limits (-90.0 90.0)
           (-45.0 45.0)
  end
  begin
     id 29
     name rfingers
     direction -1 -4.49135e-011 -5.96389e-026   
     length 0.622827   
     axis 3.80223e-014 -90 -90   XYZ
    dof rx
    limits (0.0 90.0)
  end
  begin
     id 30
     name rthumb
     direction -0.707107 -6.34969e-011 0.707107   
     length 0.894259   
     axis -90 -45 3.84942e-014   XYZ
    dof rx rz
    limits (-45.0 45.0)
           (-45.0 45.0)
  end
:hierarchy
  begin
    root lhipjoint rhipjoint lowerback
    lhipjoint lfemur
    lfemur ltibia
    ltibia lfoot
    lfoot ltoes
    rhipjoint rfemur
    rfemur rtibia
    rtibia rfoot
    rfoot rtoes
    lowerback upperback
    upperback thorax
    thorax lowerneck lclavicle rclavicle
    lowerneck upperneck
    upperneck head
    lclavicle lhumerus
    lhumerus lradius
    lradius lwrist
    lwrist lhand lthumb
    lhand lfingers
    rclavicle rhumerus
    rhumerus rradius
    rradius rwrist
    rwrist rhand rthumb
    rhand rfingers
  end

#!OML:ASF F:\VICON\USERDATA\INSTALL\rory3\rory3.ASF
:FULLY-SPECIFIED
:DEGREES
156
root 12.6672 17.9176 -1.21054 -1.94924 -21.7988 7.06007
lowerback 10.7989 -0.362459 -5.55891
upperback 0.873053 -1.18483 -0.437613
thorax -5.04461 -0.472473 2.85084
lowerneck -16.555 -4.49075 -10.8319
upperneck 31.3995 -5.60398 6.64524
head 13.9796 -2.9129 3.58265
rclavicle -1.30701e-014 1.78906e-014
rhumerus -32.8693 -6.36592 -84.1706
rradius 36.2335
rwrist 4.0504
rhand -15.8592 9.68782
rfingers 7.12502
rthumb 10.336 -20.0382
lclavicle -1.30701e-014 1.78906e-014
lhumerus -27.4424 -0.402942 85.0631
lradius 33.7074
lwrist -5.67277
lhand -16.7318 25.0962
lfingers 7.12502
lthumb 9.49411 54.8623
rfemur -29.7629 -6.94247 17.8729
rtibia 33.1053
rfoot -4.60863 -9.75325
rtoes 16.1652
lfemur 4.74009 0.941593 -28.6804
ltibia 11.0055
lfoot -11.9906 -5.65612
ltoes -16.3259
157
root 12.6137 17.9161 -1.11543 -1.99083 -21.8383 7.27883
lowerback 10.6749 -0.372995 -5.77641
upperback 0.936255 -1.21629 -0.473893
thorax -4.90238 -0.489362 2.93667
lowerneck -16.5979 -4.52486 -10.8179
upperneck 31.3477 -5.64367 6.62462
head 13.9698 -2.92923 3.56283
rclavicle -2.65378e-014 1.11319e-014
rhumerus -32.7471 -6.50929 -84.1421
rradius 36.0207
rwrist 4.07983
rhand -15.969 9.69904
rfingers 7.12502
rthumb 10.23 -20.0322
lclavicle -2.65378e-014 1.11319e-014
lhumerus -27.1818 -0.702171 85.1827
lradius 33.7365
lwrist -5.26598
lhand -17.2009 24.5944
lfingers 7.12502
lthumb 9.04148 54.3806
rfemur -29.6488 -6.84478 17.6308
rtibia 31.1027
rfoot -3.93958 -9.4276
rtoes 17.1881
lfemur 5.56467 1.40697 -28.8559
ltibia 10.0317
lfoot -11.8969 -5.74357
ltoes -18.4547
158
root 12.5603 17.91 -1.02083 -1.9587 -21.7752 7.32543
lowerback 10.6329 -0.439451 -5.82288
upperback 0.926968 -1.3067 -0.462658
thorax -4.87906 -0.533327 2.98676
lowerneck -16.4246 -4.5261 -10.8574
upperneck 31.2095 -5.64659 6.62601
head 13.8731 -2.93622 3.5673
rclavicle -1.56543e-014 -3.57812e-015
rhumerus -32.7558 -6.469 -84.1749
rradius 35.8954
rwrist 3.95901
rhand -15.8635 9.7372
rfingers 7.12502
rthumb 10.3319 -19.989
lclavicle -1.56543e-014 -3.57812e-015
lhumerus -27.1574 -0.994239 85.3157
lradius 33.8653
lwrist -4.7594
lhand -17.8102 24.0268
lfingers 7.12502
lthumb 8.45354 53.8376
rfemur -29.5727 -6.78302 17.5451
rtibia 29.2927
rfoot -3.64193 -9.20628
rtoes 15.7983
lfemur 6.41681 1.07713 -28.9094
ltibia 8.90439
lfoot -10.9758 -5.4695
ltoes -18.8225
159
root 12.5081 17.9016 -0.929049 -1.82655 -21.7397 7.23193
lowerback 10.5931 -0.512307 -5.72078
upperback 0.906166 -1.38602 -0.40571
thorax -4.87211 -0.573648 2.99972
lowerneck -16.4838 -4.50956 -10.9001
upperneck 31.2137 -5.6215 6.68204
head 13.8885 -2.92223 3.60164
rclavicle -2.90226e-014 2.5842e-014
rhumerus -32.7344 -6.55406 -84.0992
rradius 35.705
rwrist 4.06303
rhand -15.7498 9.8666
rfingers 7.12502
rthumb 10.4416 -19.8541
lclavicle -2.90226e-014 2.5842e-014
lhumerus -27.1439 -1.12184 85.423
lradius 34.0927
lwrist -4.72151
lhand -17.935 24.0014
lfingers 7.12502
lthumb 8.33304 53.817
rfemur -29.6209 -6.80446 17.6651
rtibia 27.6859
rfoot -3.18553 -8.98303
rtoes 8.89339
lfemur 7.27072 0.7604 -28.8151
ltibia 7.64963
lfoot -9.51065 -5.36712
ltoes -13.6822
160
root 12.4506 17.9004 -0.833714 -1.78283 -21.722 7.31143
lowerback 10.5153 -0.562525 -5.81059
upperback 0.914813 -1.4562 -0.381638
thorax -4.81017 -0.60824 3.08349
lowerneck -16.6806 -4.52524 -10.8659
upperneck 31.3344 -5.6033 6.57546
head 13.9781 -2.92272 3.55665
rclavicle -2.99668e-014 3.97569e-015
rhumerus -32.7283 -6.59136 -83.9533
rradius 35.462
rwrist 4.24136
rhand -15.7841 10.1142
rfingers 7.12502
rthumb 10.4085 -19.6082
lclavicle -2.99668e-014 3.97569e-015
lhumerus -27.0054 -1.21314 85.4859
lradius 34.2548
lwrist -4.86822
lhand -17.6044 24.3008
lfingers 7.12502
lthumb 8.65207 54.1035
rfemur -29.557 -6.57331 17.5142
rtibia 26.2322
rfoot -4.30022 -9.77808
rtoes 11.739
lfemur 8.18557 0.473698 -28.9141
ltibia 6.51851
lfoot -9.04335 -4.99439
ltoes -14.5982
161
root 12.3905 17.9015 -0.736641 -1.82864 -21.6171 7.49476
lowerback 10.4703 -0.631488 -5.98845
upperback 0.920373 -1.56581 -0.394535
thorax -4.76453 -0.660399 3.18409
lowerneck -16.5784 -4.55027 -10.9123
upperneck 31.2447 -5.6078 6.50237
head 13.9168 -2.9403 3.53209
rclavicle -6.07784e-014 1.47101e-014
rhumerus -32.742 -6.56266 -83.8954
rradius 35.2404
rwrist 4.29076
rhand -15.7774 10.0556
rfingers 7.12502
rthumb 10.4149 -19.6665
lclavicle -6.07784e-014 1.47101e-014
lhumerus -26.9184 -1.35394 85.5594
lradius 34.3594
lwrist -4.78205
lhand -17.692 24.4784
lfingers 7.12502
lthumb 8.56761 54.2846
rfemur -29.347 -5.94278 17.0686
rtibia 24.9973
rfoot -4.63887 -10.1742
rtoes 5.58194
lfemur 9.2576 0.115477 -29.1406
ltibia 5.30684
lfoot -9.37057 -4.56575
ltoes -20.8304
162
root 12.3332 17.8983 -0.64223 -1.85502 -21.5623 7.59874
lowerback 10.4319 -0.674275 -6.06335
upperback 0.944058 -1.62789 -0.398573
thorax -4.71016 -0.691859 3.22921
lowerneck -16.4901 -4.57796 -11.0079
upperneck 31.1368 -5.64946 6.58027
head 13.8616 -2.95927 3.57107
rclavicle 4.77083e-015 -8.74653e-015
rhumerus -32.7313 -6.60784 -83.8902
rradius 35.0814
rwrist 4.31101
rhand -15.7828 9.8891
rfingers 7.12502
rthumb 10.4097 -19.8332
lclavicle 4.77083e-015 -8.74653e-015
lhumerus -26.8312 -1.47668 85.6396
lradius 34.4473
lwrist -4.70241
lhand -17.5595 24.6752
lfingers 7.12502
lthumb 8.6954 54.4761
rfemur -29.2033 -5.27897 16.7124
rtibia 24.0135
rfoot -6.15136 -11.1922
rtoes 1.11589
lfemur 10.3907 -0.195803 -29.2751
ltibia 3.86077
lfoot -9.02855 -4.4083
ltoes -22.7379
163
root 12.2736 17.8951 -0.547696 -1.79214 -21.5727 7.57589
lowerback 10.3334 -0.684053 -6.02785
upperback 0.973487 -1.62761 -0.381398
thorax -4.62458 -0.695679 3.22425
lowerneck -16.5547 -4.62043 -11.0291
upperneck 31.1294 -5.73212 6.68139
head 13.8864 -2.98288 3.60095
rclavicle 9.74045e-015 -2.38542e-015
rhumerus -32.6949 -6.71536 -83.8823
rradius 34.8735
rwrist 4.28681
rhand -16.0532 9.63483
rfingers 7.12502
rthumb 10.1488 -20.1004
lclavicle 9.74045e-015 -2.38542e-015
lhumerus -26.6579 -1.6286 85.6861
lradius 34.4625
lwrist -4.86692
lhand -16.9291 24.7342
lfingers 7.12502
lthumb 9.30376 54.5089
rfemur -29.1415 -4.69909 16.5659
rtibia 23.264
rfoot -6.80855 -12.1956
rtoes -0.647462
lfemur 11.4987 -0.458182 -29.2543
ltibia 2.244
lfoot -7.66696 -4.35309
ltoes -20.3903
164
root 12.2112 17.8897 -0.453857 -1.63994 -21.5586 7.46426
lowerback 10.2111 -0.723538 -5.96204
upperback 0.978266 -1.65993 -0.313336
thorax -4.54774 -0.714794 3.25969
lowerneck -16.5585 -4.66884 -11.136
upperneck 31.1086 -5.80722 6.79449
head 13.8954 -3.01295 3.65202
rclavicle 9.02482e-014 9.54166e-015
rhumerus -32.5807 -6.83667 -83.7913
rradius 34.4668
rwrist 4.38544
rhand -16.1803 9.79498
rfingers 7.12502
rthumb 10.0263 -19.9462
lclavicle 9.02482e-014 9.54166e-015
lhumerus -26.4632 -1.77682 85.7657
lradius 34.3806
lwrist -5.01507
lhand -16.5986 24.6612
lfingers 7.12502
lthumb 9.62261 54.4214
rfemur -29.1473 -4.17918 16.5522
rtibia 22.7532
rfoot -6.81354 -12.708
rtoes 1.71529
lfemur 12.8434 -0.758294 -29.1418
ltibia 2.38542e-014
lfoot -5.57485 -4.27151
ltoes -15.4761
165
root 12.1499 17.8865 -0.361665 -1.54676 -21.5553 7.44981
lowerback 10.1886 -0.735221 -5.98094
upperback 0.937513 -1.67464 -0.261202
thorax -4.57441 -0.719412 3.32697
lowerneck -16.4975 -4.71793 -11.2065
upperneck 31.0676 -5.86862 6.81108
head 13.8753 -3.04628 3.65956
rclavicle -4.13472e-014 1.47101e-014
rhumerus -32.5848 -7.1797 -83.53
rradius 34.0471
rwrist 4.88055
rhand -15.87 10.536
rfingers 7.12502
rthumb 10.3256 -19.1905
lclavicle -4.13472e-014 1.47101e-014
lhumerus -26.4254 -1.86702 85.8926
lradius 34.3527
lwrist -4.96874
lhand -16.8676 24.4371
lfingers 7.12502
lthumb 9.3631 54.2092
rfemur -29.1503 -3.91327 16.5374
rtibia 22.493
rfoot -7.19736 -13.3245
rtoes 2.10547
lfemur 13.0945 -1.04574 -29.0889
ltibia -6.36111e-015
lfoot -5.02102 -3.98768
ltoes -12.1486
166
root 12.092 17.8887 -0.260411 -1.62994 -21.6675 7.55655
lowerback 10.2652 -0.685598 -5.96712
upperback 0.853153 -1.61821 -0.309757
thorax -4.71356 -0.685901 3.26398
lowerneck -16.382 -4.7728 -11.1155
upperneck 31.1289 -5.95485 6.68084
head 13.8788 -3.0938 3.57794
rclavicle -1.78906e-015 -1.19271e-015
rhumerus -32.8464 -7.47633 -83.3459
rradius 33.796
rwrist 5.27178
rhand -15.6245 10.9725
rfingers 7.12502
rthumb 10.5624 -18.7421
lclavicle -1.78906e-015 -1.19271e-015
lhumerus -26.5401 -1.83814 85.9382
lradius 34.3158
lwrist -5.10358
lhand -16.8816 24.2113
lfingers 7.12502
lthumb 9.34959 53.984
rfemur -29.0266 -4.15701 16.576
rtibia 22.4334
rfoot -7.51466 -13.5281
rtoes 1.30714
lfemur 13.5287 -1.1899 -29.1824
ltibia 2.38542e-014
lfoot -4.9486 -3.82937
ltoes -12.283
167
root 12.0311 17.8883 -0.157512 -1.71051 -21.8591 7.67509
lowerback 10.2158 -0.624354 -5.98763
upperback 0.845775 -1.53697 -0.326873
thorax -4.70169 -0.645838 3.24541
lowerneck -16.3118 -4.80819 -11.1548
upperneck 31.1435 -5.99293 6.64457
head 13.8751 -3.12154 3.5642
rclavicle -4.02539e-014 -1.63003e-014
rhumerus -32.9495 -7.60405 -83.2286
rradius 33.5716
rwrist 5.43071
rhand -15.6621 10.81
rfingers 7.12502
rthumb 10.5261 -18.9065
lclavicle -4.02539e-014 -1.63003e-014
lhumerus -26.5822 -1.5364 85.9471
lradius 34.3198
lwrist -5.70532
lhand -16.6908 24.2674
lfingers 7.12502
lthumb 9.53366 54.0317
rfemur -28.927 -4.66076 16.7385
rtibia 22.5458
rfoot -7.54491 -13.2862
rtoes 0.67312
lfemur 13.9394 -1.25913 -29.2688
ltibia 3.81667e-014
lfoot -4.79699 -3.73809
ltoes -13.4909
